<svg xmlns="http://www.w3.org/2000/svg" display="none">
  <symbol id="facebook" viewBox="0 0 512 512">
    <g>
      <path d="M288,176v-64c0-17.664,14.336-32,32-32h32V0h-64c-53.024,0-96,42.976-96,96v80h-64v80h64v256h96V256h64l32-80H288z"/>
    </g>
  </symbol>

  <symbol id="youtube" viewBox="-21 -117 682.66672 682">
    <g>
      <path d="m626.8125 64.035156c-7.375-27.417968-28.992188-49.03125-56.40625-56.414062-50.082031-13.703125-250.414062-13.703125-250.414062-13.703125s-200.324219 0-250.40625 13.183593c-26.886719 7.375-49.03125 29.519532-56.40625 56.933594-13.179688 50.078125-13.179688 153.933594-13.179688 153.933594s0 104.378906 13.179688 153.933594c7.382812 27.414062 28.992187 49.027344 56.410156 56.410156 50.605468 13.707031 250.410156 13.707031 250.410156 13.707031s200.324219 0 250.40625-13.183593c27.417969-7.378907 49.03125-28.992188 56.414062-56.40625 13.175782-50.082032 13.175782-153.933594 13.175782-153.933594s.527344-104.382813-13.183594-154.460938zm-370.601562 249.878906v-191.890624l166.585937 95.945312zm0 0"/>
    </g>
  </symbol>

  <symbol id="vk" viewBox="0 0 24 24">
    <g>
      <path d="m19.915 13.028c-.388-.49-.277-.708 0-1.146.005-.005 3.208-4.431 3.538-5.932l.002-.001c.164-.547 0-.949-.793-.949h-2.624c-.668 0-.976.345-1.141.731 0 0-1.336 3.198-3.226 5.271-.61.599-.892.791-1.225.791-.164 0-.419-.192-.419-.739v-5.105c0-.656-.187-.949-.74-.949h-4.126c-.419 0-.668.306-.668.591 0 .622.945.765 1.043 2.515v3.797c0 .832-.151.985-.486.985-.892 0-3.057-3.211-4.34-6.886-.259-.713-.512-1.001-1.185-1.001h-2.625c-.749 0-.9.345-.9.731 0 .682.892 4.073 4.148 8.553 2.17 3.058 5.226 4.715 8.006 4.715 1.671 0 1.875-.368 1.875-1.001 0-2.922-.151-3.198.686-3.198.388 0 1.056.192 2.616 1.667 1.783 1.749 2.076 2.532 3.074 2.532h2.624c.748 0 1.127-.368.909-1.094-.499-1.527-3.871-4.668-4.023-4.878z"/>
    </g>
  </symbol>

  <symbol id="odnoklasniki" viewBox="0 0 95.481 95.481">
    <g>
      <path d="M43.041,67.254c-7.402-0.772-14.076-2.595-19.79-7.064c-0.709-0.556-1.441-1.092-2.088-1.713c-2.501-2.402-2.753-5.153-0.774-7.988c1.693-2.426,4.535-3.075,7.489-1.682c0.572,0.27,1.117,0.607,1.639,0.969c10.649,7.317,25.278,7.519,35.967,0.329c1.059-0.812,2.191-1.474,3.503-1.812c2.551-0.655,4.93,0.282,6.299,2.514c1.564,2.549,1.544,5.037-0.383,7.016c-2.956,3.034-6.511,5.229-10.461,6.761c-3.735,1.448-7.826,2.177-11.875,2.661c0.611,0.665,0.899,0.992,1.281,1.376c5.498,5.524,11.02,11.025,16.5,16.566c1.867,1.888,2.257,4.229,1.229,6.425c-1.124,2.4-3.64,3.979-6.107,3.81c-1.563-0.108-2.782-0.886-3.865-1.977c-4.149-4.175-8.376-8.273-12.441-12.527c-1.183-1.237-1.752-1.003-2.796,0.071c-4.174,4.297-8.416,8.528-12.683,12.735c-1.916,1.889-4.196,2.229-6.418,1.15c-2.362-1.145-3.865-3.556-3.749-5.979c0.08-1.639,0.886-2.891,2.011-4.014c5.441-5.433,10.867-10.88,16.295-16.322C42.183,68.197,42.518,67.813,43.041,67.254z"/>
      <path d="M47.55,48.329c-13.205-0.045-24.033-10.992-23.956-24.218C23.67,10.739,34.505-0.037,47.84,0c13.362,0.036,24.087,10.967,24.02,24.478C71.792,37.677,60.889,48.375,47.55,48.329z M59.551,24.143c-0.023-6.567-5.253-11.795-11.807-11.801c-6.609-0.007-11.886,5.316-11.835,11.943c0.049,6.542,5.324,11.733,11.896,11.709C54.357,35.971,59.573,30.709,59.551,24.143z"/>
    </g>
  </symbol>

  <symbol id="instagram" viewBox="0 0 169.063 169.063">
    <g>
      <path d="M122.406,0H46.654C20.929,0,0,20.93,0,46.655v75.752c0,25.726,20.929,46.655,46.654,46.655h75.752c25.727,0,46.656-20.93,46.656-46.655V46.655C169.063,20.93,148.133,0,122.406,0z M154.063,122.407c0,17.455-14.201,31.655-31.656,31.655H46.654C29.2,154.063,15,139.862,15,122.407V46.655C15,29.201,29.2,15,46.654,15h75.752c17.455,0,31.656,14.201,31.656,31.655V122.407z"/>
      <path d="M84.531,40.97c-24.021,0-43.563,19.542-43.563,43.563c0,24.02,19.542,43.561,43.563,43.561s43.563-19.541,43.563-43.561C128.094,60.512,108.552,40.97,84.531,40.97z M84.531,113.093c-15.749,0-28.563-12.812-28.563-28.561c0-15.75,12.813-28.563,28.563-28.563s28.563,12.813,28.563,28.563C113.094,100.281,100.28,113.093,84.531,113.093z"/>
      <path d="M129.921,28.251c-2.89,0-5.729,1.17-7.77,3.22c-2.051,2.04-3.23,4.88-3.23,7.78c0,2.891,1.18,5.73,3.23,7.78c2.04,2.04,4.88,3.22,7.77,3.22c2.9,0,5.73-1.18,7.78-3.22c2.05-2.05,3.22-4.89,3.22-7.78c0-2.9-1.17-5.74-3.22-7.78C135.661,29.421,132.821,28.251,129.921,28.251z"/>
    </g>
  </symbol>

  <symbol id="check" viewBox="0 -46 417.81333 417">
    <g>
      <path d="m159.988281 318.582031c-3.988281 4.011719-9.429687 6.25-15.082031 6.25s-11.09375-2.238281-15.082031-6.25l-120.449219-120.46875c-12.5-12.5-12.5-32.769531 0-45.246093l15.082031-15.085938c12.503907-12.5 32.75-12.5 45.25 0l75.199219 75.203125 203.199219-203.203125c12.503906-12.5 32.769531-12.5 45.25 0l15.082031 15.085938c12.5 12.5 12.5 32.765624 0 45.246093zm0 0"/>
    </g>
  </symbol>

  <symbol id="btn-icon" viewBox="0 0 330 330">
    <g>
      <path id="XMLID_222_" d="M250.606,154.389l-150-149.996c-5.857-5.858-15.355-5.858-21.213,0.001c-5.857,5.858-5.857,15.355,0.001,21.213l139.393,139.39L79.393,304.394c-5.857,5.858-5.857,15.355,0.001,21.213C82.322,328.536,86.161,330,90,330s7.678-1.464,10.607-4.394l149.999-150.004c2.814-2.813,4.394-6.628,4.394-10.606C255,161.018,253.42,157.202,250.606,154.389z"/>
    </g>
  </symbol>

  <symbol id="virus" viewBox="0 0 512 512">
    <g>
      <path id="XMLID_898_" d="m278.5 512h-45c-16.542 0-30-13.458-30-30 0-13.953 9.575-25.712 22.5-29.051v-12.446c0-2.845-2.067-5.31-4.916-5.864-23.953-4.655-46.383-13.945-66.667-27.612-2.428-1.638-5.651-1.364-7.665.648l-8.878 8.877c6.192 10.778 5.41 24.664-2.732 34.385-5.414 6.463-13.326 10.381-21.71 10.75-8.383.361-16.604-2.822-22.54-8.757l-31.821-31.82c-5.666-5.666-8.786-13.199-8.786-21.213s3.12-15.548 8.786-21.214c5.667-5.666 13.2-8.786 21.214-8.786 5.449 0 10.677 1.442 15.245 4.147l8.796-8.796c2.013-2.012 2.285-5.236.648-7.665-13.667-20.284-22.957-42.714-27.612-66.666-.554-2.85-3.02-4.917-5.864-4.917h-12.435c-1.358 5.317-4.168 10.166-8.231 14.088-5.912 5.706-13.688 8.671-21.917 8.394-16.214-.578-28.915-13.958-28.915-30.461v-44.521c0-8.203 3.248-15.862 9.146-21.566 5.898-5.702 13.681-8.691 21.874-8.416 13.266.442 24.478 9.947 27.904 22.482h12.573c2.845 0 5.311-2.067 5.864-4.916 4.655-23.953 13.945-46.383 27.612-66.667 1.637-2.429 1.364-5.653-.648-7.665l-8.796-8.796c-4.568 2.705-9.796 4.147-15.245 4.147-8.014 0-15.547-3.12-21.214-8.786-11.697-11.697-11.697-30.73 0-42.428l31.82-31.819c11.697-11.698 30.729-11.696 42.427 0 5.666 5.667 8.786 13.2 8.786 21.214 0 5.448-1.442 10.676-4.147 15.245l8.796 8.796c2.014 2.014 5.236 2.285 7.664.648 20.285-13.667 42.715-22.957 66.667-27.612 2.85-.554 4.917-3.02 4.917-5.864v-12.446c-12.925-3.339-22.5-15.098-22.5-29.051 0-16.542 13.458-30 30-30h45c16.542 0 30 13.458 30 30 0 13.953-9.575 25.712-22.5 29.051v12.446c0 2.845 2.067 5.311 4.916 5.864 23.953 4.655 46.383 13.945 66.667 27.612 2.428 1.637 5.652 1.365 7.665-.648l8.804-8.803c-6.779-11.503-5.234-26.587 4.631-36.452 11.696-11.696 30.729-11.698 42.427 0l31.82 31.819c11.697 11.697 11.697 30.73 0 42.428-5.667 5.666-13.2 8.786-21.214 8.786-5.448 0-10.676-1.442-15.245-4.147l-8.796 8.796c-2.013 2.012-2.285 5.236-.648 7.665 13.667 20.284 22.957 42.714 27.612 66.666.554 2.85 3.02 4.917 5.864 4.917h12.552c3.243-12.001 13.616-21.266 26.248-22.381h.001c8.4-.749 16.763 2.084 22.952 7.751 6.192 5.67 9.744 13.736 9.744 22.13v45c0 8.394-3.552 16.46-9.744 22.13-6.189 5.667-14.562 8.491-22.952 7.751-12.633-1.115-23.006-10.38-26.249-22.381h-12.552c-2.845 0-5.31 2.067-5.864 4.916-4.655 23.953-13.945 46.383-27.612 66.667-1.637 2.429-1.364 5.653.648 7.665l8.796 8.796c4.569-2.705 9.797-4.147 15.245-4.147 8.014 0 15.547 3.12 21.214 8.786 5.666 5.666 8.786 13.2 8.786 21.214s-3.12 15.547-8.787 21.213l-31.819 31.82c-5.936 5.936-14.147 9.128-22.541 8.757-8.384-.369-16.296-4.287-21.71-10.749-8.142-9.722-8.926-23.607-2.732-34.386l-8.878-8.877c-2.013-2.013-5.236-2.286-7.664-.648-20.285 13.667-42.715 22.957-66.667 27.612-2.85.554-4.917 3.02-4.917 5.864v12.446c12.925 3.339 22.5 15.098 22.5 29.051-.001 16.542-13.459 30-30.001 30zm-127.54-126.03c5.072 0 10.179 1.469 14.634 4.471 18.046 12.159 38 20.425 59.306 24.565 12.225 2.375 21.1 13.098 21.1 25.497v18.997c0 6.893-5.607 12.5-12.5 12.5-5.514 0-10 4.486-10 10s4.486 10 10 10h45c5.514 0 10-4.486 10-10s-4.486-10-10-10c-6.893 0-12.5-5.607-12.5-12.5v-18.997c0-12.398 8.875-23.122 21.102-25.497 21.305-4.141 41.259-12.406 59.306-24.565 10.347-6.972 24.219-5.673 32.983 3.092l13.755 13.755c4.697 4.697 4.697 12.341 0 17.038-3.811 3.811-4.23 9.858-.955 13.77 1.847 2.203 4.425 3.486 7.259 3.611 2.853.118 5.511-.911 7.519-2.919l31.819-31.82c1.89-1.889 2.929-4.399 2.929-7.07 0-2.672-1.04-5.183-2.929-7.071-3.899-3.899-10.244-3.897-14.142 0l-.32.32c-4.696 4.697-12.34 4.698-17.038 0l-13.755-13.755c-8.764-8.764-10.064-22.636-3.092-32.983 12.159-18.047 20.425-38.001 24.565-59.307 2.375-12.227 13.098-21.102 25.497-21.102h19.448c6.643 0 12.049 5.405 12.049 12.049 0 5.389 3.98 9.961 9.062 10.41 2.862.25 5.595-.664 7.686-2.58 2.097-1.919 3.251-4.54 3.251-7.379v-45c0-2.839-1.154-5.46-3.251-7.379-2.093-1.918-4.837-2.835-7.686-2.58-5.082.449-9.062 5.021-9.062 10.41 0 6.643-5.405 12.049-12.049 12.049h-19.448c-12.398 0-23.122-8.875-25.497-21.102-4.141-21.305-12.406-41.259-24.565-59.306-6.973-10.348-5.672-24.22 3.092-32.983l13.435-13.435c4.875-4.874 12.804-4.873 17.679 0 3.898 3.898 10.243 3.9 14.142 0 3.899-3.899 3.899-10.243 0-14.143l-31.82-31.819c-3.896-3.897-10.241-3.901-14.142 0-3.899 3.898-3.899 10.243 0 14.142 4.874 4.874 4.874 12.805 0 17.679l-13.435 13.435c-8.765 8.764-22.636 10.064-32.984 3.092-18.046-12.159-38-20.425-59.306-24.565-12.227-2.376-21.102-13.099-21.102-25.498v-18.997c0-6.893 5.607-12.5 12.5-12.5 5.514 0 10-4.486 10-10s-4.486-10-10-10h-45c-5.514 0-10 4.486-10 10s4.486 10 10 10c6.893 0 12.5 5.607 12.5 12.5v18.997c0 12.398-8.875 23.122-21.102 25.497-21.305 4.141-41.259 12.406-59.306 24.565-10.347 6.972-24.219 5.673-32.983-3.092l-13.435-13.435c-2.36-2.361-3.661-5.5-3.661-8.839 0-3.341 1.302-6.481 3.665-8.842 3.896-3.896 3.896-10.241-.004-14.14-3.899-3.901-10.244-3.899-14.142 0l-31.82 31.819c-3.899 3.899-3.899 10.243 0 14.143 1.889 1.889 4.4 2.929 7.071 2.929s5.182-1.039 7.07-2.928c4.873-4.875 12.804-4.874 17.679-.001l13.435 13.435c8.764 8.764 10.064 22.636 3.092 32.983-12.159 18.047-20.425 38.001-24.565 59.307-2.375 12.227-13.098 21.102-25.497 21.102h-19.521c-6.604 0-11.976-5.372-11.976-11.976 0-5.622-4.328-10.341-9.647-10.518-2.737-.101-5.339.902-7.303 2.805-1.967 1.901-3.05 4.455-3.05 7.189v44.521c0 5.586 4.318 10.284 9.626 10.473 2.755.101 5.347-.895 7.316-2.796 1.972-1.903 3.058-4.46 3.058-7.198 0-6.893 5.607-12.5 12.5-12.5h18.997c12.398 0 23.122 8.875 25.497 21.102 4.141 21.305 12.406 41.259 24.565 59.306 6.973 10.348 5.672 24.22-3.092 32.983l-13.755 13.755c-4.697 4.698-12.341 4.697-17.038 0l-.32-.32c-1.889-1.89-4.399-2.929-7.07-2.929s-5.183 1.04-7.071 2.929c-1.889 1.889-2.929 4.399-2.929 7.071 0 2.671 1.039 5.182 2.928 7.07l31.821 31.82c2.008 2.007 4.684 3.045 7.518 2.919 2.834-.125 5.412-1.408 7.259-3.612 3.275-3.91 2.856-9.958-.954-13.769-4.698-4.697-4.698-12.341-.001-17.038l13.755-13.755c4.991-4.991 11.64-7.562 18.35-7.562z"/>
      <path id="XMLID_895_" d="m217.374 213.878c-23.159 0-42-18.841-42-42s18.841-42 42-42 42 18.841 42 42-18.841 42-42 42zm0-64c-12.131 0-22 9.869-22 22s9.869 22 22 22 22-9.869 22-22-9.869-22-22-22z"/>
      <path id="XMLID_892_" d="m189 355.805c-20.034 0-36.333-16.299-36.333-36.333s16.299-36.334 36.333-36.334 36.333 16.3 36.333 36.334-16.299 36.333-36.333 36.333zm0-52.667c-9.006 0-16.333 7.327-16.333 16.334 0 9.006 7.327 16.333 16.333 16.333s16.333-7.327 16.333-16.333c0-9.007-7.327-16.334-16.333-16.334z"/>
      <path id="XMLID_891_" d="m325.833 345.855c-31.34 0-57.71-23.445-61.339-54.535-.641-5.485 3.288-10.451 8.773-11.092 5.487-.636 10.451 3.287 11.092 8.774 2.452 21.01 20.282 36.853 41.474 36.853 23.025 0 41.759-18.733 41.759-41.759 0-21.326-15.956-39.17-37.115-41.505-5.489-.605-9.449-5.547-8.843-11.036.606-5.49 5.553-9.438 11.036-8.843 31.311 3.455 54.922 29.845 54.922 61.384 0 34.054-27.705 61.759-61.759 61.759z"/>
      <path id="XMLID_890_" d="m313 181.88c-2.63 0-5.21-1.07-7.07-2.93s-2.93-4.44-2.93-7.07c0-2.64 1.069-5.21 2.93-7.07 1.86-1.859 4.44-2.93 7.07-2.93s5.21 1.07 7.069 2.93c1.86 1.86 2.931 4.44 2.931 7.07s-1.07 5.21-2.931 7.07c-1.859 1.86-4.439 2.93-7.069 2.93z"/>
      <path id="XMLID_889_" d="m256 385c-2.63 0-5.21-1.07-7.07-2.931-1.86-1.859-2.93-4.439-2.93-7.069s1.069-5.21 2.93-7.07c1.86-1.86 4.43-2.93 7.07-2.93 2.63 0 5.21 1.069 7.069 2.93 1.86 1.86 2.931 4.44 2.931 7.07s-1.07 5.21-2.931 7.069c-1.859 1.861-4.439 2.931-7.069 2.931z"/>
      <path id="XMLID_888_" d="m143.67 266.13c-2.64 0-5.21-1.07-7.07-2.93-1.87-1.86-2.93-4.44-2.93-7.07 0-2.64 1.06-5.21 2.93-7.07 1.851-1.87 4.431-2.93 7.07-2.93 2.63 0 5.21 1.06 7.07 2.93 1.859 1.86 2.93 4.44 2.93 7.07s-1.07 5.2-2.93 7.07c-1.86 1.86-4.44 2.93-7.07 2.93z"/>
      <path id="XMLID_887_" d="m289.12 257.62c-2.63 0-5.21-1.07-7.07-2.931-1.86-1.859-2.93-4.439-2.93-7.069 0-2.641 1.069-5.21 2.93-7.08 1.86-1.86 4.44-2.92 7.07-2.92s5.21 1.06 7.069 2.92c1.86 1.87 2.931 4.44 2.931 7.08 0 2.63-1.07 5.199-2.931 7.069-1.859 1.861-4.439 2.931-7.069 2.931z"/>
    </g>
  </symbol>

  <symbol id="cockroach" viewBox="0 0 512 512">
    <g>
      <path d="M483.461,276.826c-3.121-3.741-8.685-4.235-12.43-1.123l-46.184,38.492l-38.485-46.356c-1.677-2.009-4.159-3.338-6.78-3.338h-27.775c-0.901-11.034-2.259-24.275-4.041-35.309h22.988c4.875,0,7.724-3.612,7.724-8.491V170.41l34.378-50.739c2.702-4.06,1.883-9.534-2.172-12.241c-4.064-2.707-9.4-1.612-12.103,2.448l-35.792,52.963c-0.966,1.448-1.965,3.155-1.965,4.896v43.8h-16.24c-2.549-11.034-5.627-24.038-9.176-35.003c0.023-1.375-0.236-2.687-0.893-4.002c-0.284-0.571-0.629-1.052-1.013-1.53c-10.206-29.37-23.889-52.496-39.832-66.752c10.473-16.659,47.074-66.04,123.545-86.897c4.703-1.284,7.474-6.131,6.194-10.829c-1.289-4.707-6.142-7.523-10.84-6.196c-81.485,22.221-120.89,73.939-133.421,93.796c-7.396-3.808-15.142-5.832-23.146-5.832c-8.003,0-15.749,2.026-23.145,5.832C220.324,74.27,180.919,22.554,99.433,0.331c-4.711-1.302-9.555,1.491-10.84,6.198c-1.28,4.698,1.491,9.551,6.194,10.836c76.139,20.762,112.97,70.238,123.528,86.923c-15.938,14.26-29.617,37.406-39.819,66.769c-0.382,0.478-0.725,1-1.01,1.569c-0.653,1.31-0.912,2.532-0.89,3.903c-3.552,10.967-6.629,23.975-9.179,35.009H148.97v-43.8c0-1.741,0.034-3.448-0.931-4.896l-35.033-52.963c-2.707-4.06-8.047-5.155-12.103-2.448c-4.056,2.707-5.633,8.181-2.931,12.241l33.344,50.739v50.291c0,4.879,5.056,8.491,9.931,8.491h22.988c-1.781,11.034-3.14,24.275-4.04,35.309h-27.776c-2.621,0-5.103,1.332-6.78,3.34l-38.485,46.272L40.97,275.665c-3.754-3.112-9.31-2.59-12.431,1.151c-3.12,3.75-2.616,9.329,1.129,12.45l52.963,44.143c1.651,1.371,3.655,2.045,5.646,2.045c2.53,0,5.039-1.246,6.784-3.34l41.49-49.957h22.672c-0.211,6.62-0.323,11.868-0.323,17.823c0,10.193,0.321,20.277,0.931,30.048l-24.034,15.695c-2.457,1.638-4.482,4.439-4.482,7.388v66.204l-66.536,50.317c-3.901,2.922-4.414,8.457-1.487,12.353c1.733,2.319,4.521,3.534,7.207,3.534c1.841,0,3.767-0.578,5.357-1.767l70.101-52.963c2.224-1.664,3.013-4.284,3.013-7.06v-65.894l12.004-7.636C171.028,444.07,209.204,512,255.724,512c46.521,0,84.007-67.93,94.061-161.802l11.038,7.636v65.894c0,2.776,1.858,5.397,4.082,7.06l70.894,52.963c1.59,1.189,3.586,1.767,5.427,1.767c2.685,0,5.405-1.215,7.138-3.534c2.926-3.896,1.62-9.431-2.28-12.353l-67.605-50.317V353.11c0-2.948-0.922-5.707-3.379-7.344l-23.204-15.654c0.608-9.771,1.067-19.939,1.067-30.132c0-5.955,0.026-11.202-0.184-17.823h22.671l41.49,49.959c1.746,2.095,4.254,3.256,6.784,3.256c1.991,0,3.995-0.632,5.646-2.002l52.963-44.115C486.077,286.134,486.581,280.576,483.461,276.826z M256,105.947c21.423,0,43.684,24.348,59.174,66.062c-11.756,4.879-35.63,13.383-59.174,13.383c-23.462,0-47.388-8.515-59.17-13.394C212.321,130.291,234.581,105.947,256,105.947zM246.069,493.078c-28.688-8.732-56.138-62.222-65.918-132.199c0.599-0.321,0.903-0.694,1.433-1.166c0.345-0.302,33.589-27.908,64.484-32.44V493.078z M263.724,492.941V327.273c33.102,4.532,64.968,32.139,65.312,32.44c0.57,0.506,0.922,0.892,1.571,1.224C320.432,435.031,292.412,484.32,263.724,492.941z M333.721,340.367c-14.019-10.67-45.403-31.393-77.721-31.393c-32.262,0-63.594,20.652-77.65,31.342c-1.171-13.008-1.795-26.447-1.795-40.169c0-43.022,5.644-80.796,14.688-111.329c13.458,5.502,38.882,14.23,64.757,14.23c25.876,0,51.3-8.728,64.757-14.23c9.044,30.533,14.688,68.308,14.688,111.329C335.445,314.135,334.836,327.555,333.721,340.367z"/>
    </g>
  </symbol>

  <symbol id="rat" viewBox="0 0 60 49">
    <g>
      <path d="m59.966 8.815c-.0051818-.05068646-.014547-.1008575-.028-.15-.3-1.425-2.546-2.255-6.623-3.614-2.1312133-.65651704-4.3479681-.9935123-6.578-1-.507-1.944-1.837-4.051-4.737-4.051-1.1441815-.0106761-2.206162.59322509-2.782 1.582-.5334142.94073236-.797726 2.01008803-.764 3.091 0 .059 0 .118.006.177-.5.179-1.006.367-1.526.57-1.6559091.69338973-3.3735111 1.22909406-5.13 1.6-1.9087565.39842137-3.885883.32530888-5.76-.213-2.3075191-.54835724-4.6722518-.81927423-7.044-.807-7.747 0-19 6.623-19 17 0 8.188 1.278 12.219 4.51 14.081.727 3.548 2.306 7.2 5.671 8.62 4.217 1.864 10.892 1.662 19.343 1.409 3.434-.1 6.988-.2 10.805-.2 2.6.012 8.7.041 11.744 1.325 1.2094584.5105884 2.6055148-.0353588 3.1477411-1.2309678.5422262-1.1956089.033191-2.6055433-1.1477411-3.1790322-4.888-2.385-14.4-2.656-23.589-2.918-5.926-.169-11.525-.328-15.022-1.07-.797181-.1457593-1.5680546-.4100203-2.287-.784-.3003444-.4639472-.5260859-.9721186-.669-1.506 1.8553327-.4881841 3.6722363-1.1122016 5.436-1.867.313.633.622 1.316.885 2.011.2890704.7851541 1.0363244 1.3073941 1.873 1.309h8.84c.6971374.0005415 1.3442537-.3619649 1.7078999-.956744.3636463-.5947791.3913436-1.3359965.0731001-1.956256-1.013-1.987-2.548-3.087-4.321-3.087-1.509 0-2.339-.059-2.724-.678.348-.25.672-.49.962-.709 1.6-1.217 2.488-1.887 6.927-2.627.032 0 .064-.012.1-.018 2.2079798.895587 4.247689 2.1599226 6.032 3.739.9287861.9053059 1.651531 2.0001673 2.119 3.21.413.976.884 2.083 2.584 2.083h4.8c.6501511-.0007507 1.2600353-.3150012 1.638-.844.372783-.5122108.4713835-1.1744023.264-1.773-.5208599-1.5930421-1.7813772-2.8349237-3.382-3.332-1.736-.578-3.756-4.1-5.129-7.58 1.2267566-1.15517 2.1717278-2.5767325 2.762-4.155.817-2.464 1.34-3.316 6.047-3.316 5.415 0 9.9-5.182 9.991-7.91 0-.015 0-.03.005-.046s0-.03 0-.044c-.0064414-.06219129-.016458-.12396016-.03-.185zm-44.916 32.985c3.674.779 9.36.941 15.379 1.113 8.563.243 18.268.52 22.769 2.716.2126296.0958214.3073214.3458704.2115.5585s-.3458704.3073214-.5585.2115c-3.008-1.269-8.013-1.462-12.514-1.483h-.622c-3.617 0-6.987.1-10.252.2-8.195.247-14.671.443-18.489-1.246-2.835-1.2-4.067-4.779-4.6-7.711-.005-.015 0-.032-.009-.047-.133-.735-.225-1.431-.285-2.033-.07723414-.7838876.3306436-1.5358028 1.02984963-1.8985091.69920604-.3627062 1.54880491-.2630946 2.14515037.2515091.41714993.3648898.65962586.8898301.667 1.444.045 1.016.3 4.477 1.61 6.316.597.908 2.66 1.423 3.518 1.608zm34.95-26.8c-5.422 0-6.8 1.227-7.949 4.684-.3697427.9814065-.9213985 1.8842084-1.626 2.661-.175-.551-.329-1.085-.455-1.588-.0847423-.348821-.3499483-.6254598-.6948844-.7248402-.344936-.0993804-.7166761-.0062538-.9740215.2440075-.2573454.2502612-.3608098.6192576-.2710941.9668327.2856053 1.1029723.6290806 2.1901435 1.029 3.257.008.025.017.048.027.073 1.414 3.8 3.828 8.453 6.6 9.376.9975392.2970468 1.7869183 1.0629014 2.114 2.051h-4.8c-.377 0-.377 0-.749-.869-.569269-1.443685-1.4360615-2.7513695-2.544-3.838-3.131-3.131-9.137-5.157-9.391-5.242-.2516889-.0838718-.5263908-.0642936-.763641.0544253-.2372501.1187188-.4176022.3268475-.501359.5785747-.0932513.291901-.0451901.6105832.13.862-1.8548671.3722878-3.5891617 1.1966703-5.049 2.4.1578098-.7136059.3513874-1.4188289.58-2.113.742-2.367 1.664-5.313.183-8.276-2.316-4.635-8.89-6.557-11.895-6.557-.5522847 0-1 .4477153-1 1s.4477153 1 1 1c2.649 0 8.292 1.82 10.105 5.447 1.121 2.241.4 4.551-.3 6.784-.4530078 1.20968-.7242866 2.4798037-.805 3.769.0004559.3626215.0339274.7244485.1 1.081 0 .028.008.055.014.083.56 2.828 3.22 2.836 4.886 2.836 1.011 0 1.865.671 2.54 2l-8.84-.017c-.3929745-1.0167021-.8474819-2.0085368-1.361-2.97.000467-.0063247.000467-.0126753 0-.019-.006-.013-.018-.021-.024-.034-.761-1.433-1.433-2.447-1.478-2.515-.1982824-.297245-.5400812-.4661283-.8966441-.4430332s-.6737195.2346599-.832.555-.1336383.7007882.0646441.9980332c.008.011.357.539.828 1.357-1.5921154.6739639-3.2294493 1.2356696-4.9 1.681-.09-.631-.149-1.256-.174-1.81-.0293445-1.0899484-.5107531-2.1185734-1.3288595-2.839372-.81810638-.7207986-1.89917693-1.0688072-2.9841405-.960628-2.09320462.1972889-3.65326111 2.0183131-3.527 4.117-1.205-1.583-2.087-4.631-2.087-11.1 0-9.157 10.068-15 17-15 2.2289861-.01379478 4.4514587.24206322 6.619.762 2.1438772.59639598 4.3993403.67114377 6.578.218 1.870436-.39474967 3.6997661-.96390433 5.464-1.7.368-.143.725-.283 1.078-.413.593 2.266 2.094 4.133 4.261 4.133.5522847 0 1-.4477153 1-1 0-.55228475-.4477153-1-1-1-1.5 0-2.546-2.28-2.546-4.327-.0292279-.70905713.1316613-1.41303363.466-2.039.2101618-.39949879.6287335-.6452159 1.08-.634 2.936 0 3 3.818 3 4 .0021207.53649955.4292079.97471371.9654755.9906291.5362677.01591538.988591-.39619957 1.0225245-.9316291 1.9328141.02129738 3.852499.32070088 5.7.889.859.286 1.983.662 2.985 1.042-.1349084.08737181-.2608535.18785998-.376.3-.3789722.39237889-.3735524 1.01608478.0121814 1.40181858.3857338.38573382 1.0094397.39115362 1.4018186.01218142.208-.208.69-.173 1.137-.062-.721 1.844-3.968 5.358-7.848 5.358z"/>
      <path d="m49 8h-1c-.5522847 0-1 .44771525-1 1s.4477153 1 1 1h1c.5522847 0 1-.44771525 1-1s-.4477153-1-1-1z"/>
    </g>
  </symbol>

  <symbol id="ant" viewBox="-26 0 512 512.00073">
    <g>
      <path d="m280 336c0 5.523438-4.476562 10-10 10s-10-4.476562-10-10c0-5.519531 4.476562-10 10-10s10 4.480469 10 10zm0 0"/>
      <path d="m270 366.054688c-5.484375-.652344-10.464844 3.242187-11.128906 8.726562-2.742188 22.683594-10.488282 48.804688-18.414063 62.101562-2.824219 4.746094-1.269531 10.882813 3.472657 13.710938 4.746093 2.828125 10.882812 1.269531 13.710937-3.472656 9.476563-15.902344 17.949219-44.007813 21.085937-69.9375.664063-5.484375-3.242187-10.464844-8.726562-11.128906zm0 0"/>
      <path d="m456.363281 454.285156-77.785156-64.171875-39.089844-117.273437c-1.363281-4.082032-5.183593-6.835938-9.488281-6.835938h-34.863281c-2.9375-4.441406-6.082031-8.570312-9.425781-12.359375 1.699218-2.355469 3.28125-4.785156 4.726562-7.25l56.859375-18.949219 35.628906 35.628907c1.878907 1.875 4.421875 2.929687 7.074219 2.929687h59.996094c5.523437 0 10-4.480468 10-10 0-5.523437-4.476563-10-10-10h-55.855469l-37.070313-37.074218c-2.679687-2.675782-6.640624-3.609376-10.234374-2.414063l-47.324219 15.773437c.167969-1.125.292969-2.234374.375-3.324218l55.773437-92.960938h34.339844c5.519531 0 10-4.480468 10-10 0-5.523437-4.480469-10-10-10h-40c-3.511719 0-6.769531 1.84375-8.574219 4.855469l-49.226562 82.039063c-2.675781-3.71875-6.007813-7.1875-9.910157-10.320313 11.378907-12.699219 17.710938-29.074219 17.710938-46.574219 0-19.832031-8.222656-42.921875-21.097656-60.589844l16.640625-11.089843c4.03125-2.683594 5.558593-7.867188 3.625-12.308594l-20-46c-2.199219-5.066406-8.09375-7.386719-13.15625-5.183594s-7.386719 8.09375-5.183594 13.15625l16.664063 38.332031-12.214844 8.136719c-10.953125-9.472656-23.015625-14.453125-35.277344-14.453125s-24.324219 4.980469-35.28125 14.453125l-12.214844-8.136719 16.667969-38.332031c2.199219-5.0625-.121094-10.953125-5.183594-13.15625-5.066406-2.199219-10.957031.117188-13.160156 5.183594l-20 46c-1.929687 4.4375-.402344 9.625 3.625 12.308594l16.644531 11.089843c-12.878906 17.667969-21.097656 40.757813-21.097656 60.589844 0 17.5 6.332031 33.875 17.710938 46.574219-3.90625 3.132813-7.234376 6.601563-9.910157 10.320313l-49.226562-82.039063c-1.808594-3.015625-5.0625-4.855469-8.574219-4.855469h-40c-5.523438 0-10 4.476563-10 10 0 5.519532 4.476562 10 10 10h34.339844l55.773437 92.960938c.082031 1.089844.207031 2.199218.375 3.324218l-47.328125-15.773437c-3.589844-1.195313-7.550781-.261719-10.230468 2.414063l-37.070313 37.074218h-55.859375c-5.519531 0-10 4.476563-10 10 0 5.519532 4.480469 10 10 10h60c2.652344 0 5.195312-1.054687 7.070312-2.929687l35.628907-35.628907 56.863281 18.949219c1.445312 2.464844 3.027344 4.894531 4.726562 7.25-3.34375 3.789063-6.492187 7.917969-9.425781 12.359375h-34.863281c-4.304688 0-8.125 2.753906-9.488281 6.835938l-39.089844 117.273437-77.785156 64.171875c-4.261719 3.515625-4.863281 9.820313-1.351563 14.078125 3.523438 4.269531 9.828125 4.859375 14.078125 1.351563l80-66c1.449219-1.195313 2.53125-2.769532 3.125-4.550782l37.71875-113.171874h16.828125c-9.105468 20.742187-14.035156 45.019531-14.035156 70.007812 0 34.1875 9.171875 72.476562 24.535156 102.417969 17.726563 34.554687 40.976563 53.582031 65.464844 53.582031 24.484375 0 47.734375-19.027344 65.464844-53.582031 15.363281-29.941407 24.535156-68.230469 24.535156-102.417969 0-24.988281-4.929688-49.257812-14.039062-69.996094h16.828124l37.722657 113.160156c.59375 1.78125 1.675781 3.355469 3.121093 4.550782l80 66c4.261719 3.511718 10.5625 2.910156 14.078126-1.351563 3.515624-4.257812 2.910156-10.5625-1.347657-14.078125zm-276.363281-238.28125c0-7.335937 4.984375-14.648437 13.554688-20.234375 10.953124 6.707031 23.421874 10.234375 36.445312 10.234375 13.019531 0 25.488281-3.527344 36.441406-10.234375 8.574219 5.585938 13.558594 12.898438 13.558594 20.234375 0 17.394532-23.179688 50-50 50-26.515625 0-50-32.355468-50-50zm50-150c26.058594 0 50 40.917969 50 70 0 15.871094-7.289062 30.453125-19.996094 40-8.710937 6.542969-19.085937 10-30.003906 10s-21.296875-3.457031-30.003906-9.996094c-12.707032-9.550781-19.996094-24.132812-19.996094-40.003906 0-28.785156 23.796875-70 50-70zm47.667969 383.28125c-13.925781 27.148438-31.300781 42.714844-47.667969 42.714844s-33.742188-15.566406-47.671875-42.714844c-13.980469-27.25-22.328125-62.121094-22.328125-93.285156 0-27.796875 6.730469-54.390625 18.957031-74.875 2.722657-4.5625 5.679688-8.742188 8.835938-12.523438 12.753906 11.28125 27.433593 17.402344 42.207031 17.402344 14.769531 0 29.453125-6.125 42.207031-17.402344 3.15625 3.78125 6.113281 7.960938 8.835938 12.527344 12.222656 20.480469 18.957031 47.074219 18.957031 74.871094 0 31.164062-8.347656 66.035156-22.332031 93.285156zm0 0"/>
    </g>
  </symbol>

  <symbol id="fly" viewBox="0 0 64 64">
    <g>
      <path d="m56.469 27h6.531v-2h-7.469l-5 6h-4.087c-2.858-2.828-5.2-5.469-5.418-7.67l.505-1.094c.303-.658.464-1.387.467-2.111l6.933-2.388 1.022-10.23 5.687-4.738-1.281-1.536-6.313 5.262-.978 9.77-5.461 1.881c-.201-.482-.489-.913-.82-1.307.712-.308 1.213-1.016 1.213-1.839 0-2.757-2.243-5-5-5h-1c-.047 0-.091.011-.138.014-.138-.541-.387-1.032-.72-1.46l.828-3.311-1.94-.486-.628 2.51c-.437-.165-.907-.267-1.402-.267s-.965.102-1.403.267l-.628-2.51-1.939.486.828 3.311c-.334.428-.582.919-.72 1.46-.047-.003-.091-.014-.138-.014h-1c-2.757 0-5 2.243-5 5 0 .823.501 1.531 1.213 1.838-.331.394-.619.825-.82 1.307l-5.461-1.881-.978-9.77-6.313-5.262-1.282 1.536 5.687 4.738 1.022 10.23 6.933 2.388c.004.724.164 1.452.467 2.111l.505 1.094c-.218 2.2-2.56 4.841-5.418 7.67h-4.087l-5-6h-7.468v2h6.531l5 6h2.969c-4.922 4.75-10.5 10.133-10.5 16.001 0 8.265 3.807 10 7 10 1.328 0 3.32-.754 5.451-2.073l.489 1.957-1.835 3.669 1.789.895 2.165-4.331-.847-3.39c1.704-1.269 3.406-2.857 4.853-4.68.654 1.729 1.457 3.196 2.399 4.374 1.311 1.639 3.327 2.579 5.542 2.579 2.203 0 4.219-.94 5.53-2.579.941-1.177 1.742-2.647 2.396-4.377 1.447 1.824 3.15 3.413 4.856 4.683l-.847 3.39 2.165 4.331 1.789-.895-1.835-3.669.489-1.957c2.131 1.319 4.123 2.073 5.451 2.073 3.193 0 7-1.735 7-10 0-5.868-5.578-11.251-10.5-16h2.969zm-29.369-10v-.01c1.272-.043 2.336-.878 2.729-2.03v.04h4.344v-.04c.392 1.151 1.456 1.987 2.729 2.03v.01c1.709 0 3.1 1.391 3.1 3.1 0 .445-.099.894-.285 1.299l-4.366 9.459c-.602 1.301-1.917 2.142-3.351 2.142s-2.749-.841-3.349-2.143l-4.366-9.458c-.186-.405-.285-.855-.285-1.299 0-1.709 1.391-3.1 3.1-3.1zm8.919 22h-8.039c-.063-3.187-.276-4.863-.487-6.242 1.063 1.385 2.719 2.242 4.507 2.242s3.444-.857 4.507-2.242c-.212 1.379-.425 3.055-.488 6.242zm-8.019 2h8c0 1.372.233 2.71.635 4h-9.27c.402-1.29.635-2.628.635-4zm9-29c1.654 0 3 1.346 3.001 3h-3.001c-.552 0-1-.449-1-1v-1-1zm-3-1v1 1h-4v-1-1c0-1.103.897-2 2-2s2 .897 2 2zm-7 1h1v1 1c0 .551-.448 1-1 1h-3c0-1.654 1.346-3 3-3zm-15 45c-2.146 0-5-.829-5-8 0-5.02 5.255-10.09 9.892-14.563 2.997-2.892 5.713-5.513 7.112-8.045-.44 3.046-3.397 6.359-6.27 9.572-3.453 3.864-7.024 7.859-7.024 12.082 0 3.385 1.864 6.056 1.943 6.168l1.634-1.154c-.016-.022-1.577-2.282-1.577-5.014 0-3.458 3.313-7.165 6.516-10.749.39-.436.781-.875 1.169-1.315-.147.232-.294.464-.441.694-2.005 3.134-3.898 6.094-3.953 9.307-.028 1.669.513 3.553 1.564 5.447l1.748-.971c-.881-1.587-1.335-3.124-1.313-4.442.045-2.646 1.79-5.375 3.638-8.263 1.366-2.136 2.756-4.32 3.59-6.64.064.503.135.966.209 1.433.263 1.677.563 3.577.563 8.453 0 8.62-10.672 16-14 16zm19.994-1c-1.568 0-3.052-.684-3.968-1.828-.285-.357-.555-.75-.813-1.172h9.573c-.257.422-.528.815-.814 1.171-.914 1.145-2.398 1.829-3.978 1.829zm5.788-5h-11.565c-.261-.619-.504-1.276-.721-1.984.406-.652.775-1.324 1.097-2.016h10.815c.321.691.69 1.363 1.095 2.013-.218.709-.46 1.368-.721 1.987zm19.218-2c0 7.171-2.854 8-5 8-3.328 0-14-7.38-14-16 0-4.876.3-6.776.563-8.453.074-.468.145-.93.209-1.433.833 2.32 2.223 4.504 3.59 6.64 1.848 2.889 3.593 5.617 3.638 8.263.022 1.318-.432 2.854-1.313 4.442l1.748.971c1.052-1.894 1.593-3.777 1.564-5.447-.055-3.212-1.948-6.173-3.953-9.307-.147-.23-.294-.462-.441-.694.388.44.779.878 1.169 1.315 3.203 3.584 6.516 7.29 6.516 10.749 0 2.732-1.562 4.992-1.576 5.012l1.633 1.156c.079-.112 1.943-2.783 1.943-6.168 0-4.222-3.571-8.218-7.024-12.082-2.872-3.213-5.83-6.526-6.27-9.572 1.4 2.532 4.115 5.153 7.112 8.045 4.637 4.473 9.892 9.543 9.892 14.563z"/>
    </g>
  </symbol>

  <symbol id="bug" viewBox="-4 0 511 512">
    <g>
      <path d="m182.976562 63.328125c9.1875-5.777344 19.558594-9.847656 30.660157-11.757813l-10.652344-10.648437v-25.921875c0-8.28125-6.707031-15-15-15-8.277344 0-15 6.71875-15 15v32.128906c0 3.980469 1.582031 7.800782 4.402344 10.609375zm0 0"/>
      <path d="m327.125 57.738281c2.820312-2.808593 4.402344-6.628906 4.402344-10.609375v-32.128906c0-8.28125-6.722656-15-15-15-8.292969 0-15 6.71875-15 15v25.921875l-10.652344 10.648437c11.101562 1.910157 21.46875 5.980469 30.660156 11.757813zm0 0"/>
      <path d="m172.996094 134.519531c10.03125-2.539062 20.4375-3.847656 31.058594-3.847656h96.402343c10.617188 0 21.027344 1.308594 31.058594 3.847656-.519531-29.96875-25.070313-54.191406-55.160156-54.191406h-48.199219c-30.089844 0-54.621094 24.210937-55.160156 54.191406zm0 0"/>
      <path d="m118.046875 164.839844-27.519531-27.519532v-58.050781c0-8.289062-6.722656-15-15-15-8.292969 0-15 6.710938-15 15v64.261719c0 3.980469 1.578125 7.796875 4.386718 10.609375l33.839844 33.839844c4.75-7.351563 10.332032-14.25 16.679688-20.601563.863281-.859375 1.730468-1.707031 2.613281-2.539062zm0 0"/>
      <path d="m443.984375 143.53125v-64.261719c0-8.289062-6.707031-15-15-15-8.277344 0-15 6.710938-15 15v58.050781l-27.519531 27.519532c.878906.832031 1.75 1.679687 2.609375 2.539062 6.351562 6.351563 11.929687 13.25 16.679687 20.601563l33.839844-33.839844c2.8125-2.8125 4.390625-6.628906 4.390625-10.609375zm0 0"/>
      <path d="m48.84375 245.390625-32.128906 32.140625c-5.859375 5.847656-5.859375 15.347656 0 21.207031 5.859375 5.863281 15.351562 5.863281 21.210937 0l27.738281-27.738281h13.0625v-15c0-5.050781.300782-10.058594.890626-15h-20.160157c-3.980469 0-7.792969 1.578125-10.613281 4.390625zm0 0"/>
      <path d="m438.84375 271 27.742188 27.738281c5.847656 5.863281 15.347656 5.863281 21.210937 0 5.859375-5.859375 5.859375-15.359375 0-21.207031l-32.132813-32.140625c-2.820312-2.8125-6.628906-4.390625-10.609374-4.390625h-20.160157c.589844 4.941406.890625 9.949219.890625 15v15zm0 0"/>
      <path d="m123.726562 243.128906h64.257813c23.3125 0 45.800781 7.519532 64.269531 20.941406 18.472656-13.421874 40.960938-20.941406 64.273438-20.941406h64.257812c5.039063 0 9.890625.832032 14.421875 2.371094-2.332031-21.488281-11.832031-41.398438-27.339843-56.910156-18.011719-18.011719-41.953126-27.917969-67.410157-27.917969h-96.402343c-25.460938 0-49.398438 9.90625-67.410157 27.917969-15.507812 15.511718-25.007812 35.421875-27.339843 56.910156 4.53125-1.539062 9.378906-2.371094 14.421874-2.371094zm0 0"/>
      <path d="m380.789062 273.132812h-64.269531c-26.484375 0-49.878906 12.960938-64.265625 32.859376-14.386718-19.898438-37.777344-32.859376-64.265625-32.859376h-64.269531c-8.28125 0-15 6.714844-15 15v80.332032c.003906 79.144531 64.390625 143.535156 143.535156 143.535156 79.148438 0 143.535156-64.390625 143.535156-143.53125v-80.335938c0-8.285156-6.714843-15-15-15zm0 0"/>
      <path d="m48.722656 384.53125v58.058594l-43.808594 43.800781c-9.492187 9.5-2.621093 25.609375 10.609376 25.609375 3.839843 0 7.679687-1.460938 10.609374-4.390625l48.199219-48.199219c2.808594-2.820312 4.390625-6.628906 4.390625-10.609375v-100.480469l-25.609375 25.609376c-2.8125 2.808593-4.390625 6.628906-4.390625 10.601562zm0 0"/>
      <path d="m499.597656 486.390625-43.808594-43.800781v-58.058594c0-3.972656-1.582031-7.792969-4.390624-10.601562l-25.609376-25.609376v100.480469c0 3.980469 1.578126 7.789063 4.390626 10.609375l48.199218 48.199219c2.929688 2.929687 6.769532 4.390625 10.609375 4.390625 13.230469 0 20.101563-16.109375 10.609375-25.609375zm0 0"/>
    </g>
  </symbol>

  <symbol id="mosquito" viewBox="0 0 64 64">
    <g>
      <path d="M59.628,23.864A5.381,5.381,0,0,0,56.7,23H37.236L45.447,18.9A1,1,0,0,0,46,18V11.236l3.9-7.789-1.79-.894-4,8A1,1,0,0,0,44,11v6.382L35.358,21.7A6.258,6.258,0,0,0,35,21h0a4,4,0,0,0,0-8,3.959,3.959,0,0,0-2,.556V2H31V13.556A3.959,3.959,0,0,0,29,13a4,4,0,0,0,0,8h0a6.258,6.258,0,0,0-.359.7L20,17.382V11a1,1,0,0,0-.105-.447l-4-8-1.79.894L18,11.236V18a1,1,0,0,0,.553.895L26.764,23H7.3a5.314,5.314,0,0,0-2.925.861A5.159,5.159,0,0,0,2,28.19,4.866,4.866,0,0,0,6.91,33a4.921,4.921,0,0,0,1.761-.323l19.348-7.242a9.218,9.218,0,0,0,.089.923L14.5,34.132A1,1,0,0,0,14,35v6.426L2.5,48.136,3.5,49.864l12-7A1,1,0,0,0,16,42V35.58l12.668-7.239c.059.134.115.27.181.4l-9.556,9.556A1,1,0,0,0,19,39V54.5l-7.6,5.7,1.2,1.6,8-6A1,1,0,0,0,21,55V39.414l8.071-8.071c-.343,1.145-.652,2.3-.889,3.452a43.106,43.106,0,0,0-.9,10.238h0A42.78,42.78,0,0,0,30.874,60.92l.21.48A1,1,0,0,0,32,62h0a1,1,0,0,0,.914-.6l.152-.343A42.89,42.89,0,0,0,36.66,45.03h0a42.594,42.594,0,0,0-.931-10.236c-.26-1.218-.591-2.417-.952-3.6L43,39.414V55a1,1,0,0,0,.4.8l8,6,1.2-1.6L45,54.5V39a1,1,0,0,0-.293-.707L35.15,28.736c.066-.126.128-.258.187-.392L48,35.58V42a1,1,0,0,0,.5.864l12,7L61.5,48.136,50,41.426V35a1,1,0,0,0-.5-.868l-13.6-7.774a8.934,8.934,0,0,0,.088-.923l19.352,7.244a5,5,0,0,0,4.6-.568A4.724,4.724,0,0,0,62,28.188,5.149,5.149,0,0,0,59.628,23.864ZM29.359,41h5.214c.067,1,.111,2,.1,3H29.26C29.251,43,29.294,42,29.359,41Zm-.025,5H34.61c-.071,1.343-.2,2.678-.4,4H29.751C29.546,48.679,29.41,47.345,29.334,46Zm.2-7c.146-1.27.339-2.538.6-3.8a38.622,38.622,0,0,1,1.145-4.292c.027.007.055.005.082.011a2.79,2.79,0,0,0,.5.068c.035,0,.069.009.1.009.011,0,.021,0,.032,0a2.849,2.849,0,0,0,.559-.062c.019,0,.039,0,.058-.006a40.726,40.726,0,0,1,1.155,4.279c.27,1.249.469,2.515.618,3.789Zm3.084-10.229a.961.961,0,0,1-.859.181,1.2,1.2,0,0,1-.431-.226A4.915,4.915,0,0,1,30,25c0-2.289,1.056-4,2-4s2,1.711,2,4A4.812,4.812,0,0,1,32.621,28.771ZM35,15a2,2,0,1,1-2,2A2,2,0,0,1,35,15Zm-8,2a2,2,0,1,1,2,2A2,2,0,0,1,27,17ZM7.964,30.806A2.942,2.942,0,0,1,6.91,31,2.865,2.865,0,0,1,4,28.19a3.168,3.168,0,0,1,1.469-2.654A3.327,3.327,0,0,1,7.3,25H23.476ZM32,58.4a40.718,40.718,0,0,1-1.88-6.4H33.85A40.982,40.982,0,0,1,32,58.4ZM58.788,30.468a3,3,0,0,1-2.755.338L40.523,25H56.7a3.383,3.383,0,0,1,1.842.542A3.156,3.156,0,0,1,60,28.188,2.746,2.746,0,0,1,58.788,30.468Z"/>
    </g>
  </symbol>

  <symbol id="phone" viewBox="0 0 513.64 513.64">
    <g>
      <path d="M499.66,376.96l-71.68-71.68c-25.6-25.6-69.12-15.359-79.36,17.92c-7.68,23.041-33.28,35.841-56.32,30.72c-51.2-12.8-120.32-79.36-133.12-133.12c-7.68-23.041,7.68-48.641,30.72-56.32c33.28-10.24,43.52-53.76,17.92-79.36l-71.68-71.68c-20.48-17.92-51.2-17.92-69.12,0l-48.64,48.64c-48.64,51.2,5.12,186.88,125.44,307.2c120.32,120.32,256,176.641,307.2,125.44l48.64-48.64C517.581,425.6,517.581,394.88,499.66,376.96z"/>
    </g>
  </symbol>

   <symbol id="user" viewBox="-42 0 512 512.002">
    <g>
      <path d="m210.351562 246.632812c33.882813 0 63.222657-12.152343 87.195313-36.128906 23.972656-23.972656 36.125-53.304687 36.125-87.191406 0-33.875-12.152344-63.210938-36.128906-87.191406-23.976563-23.96875-53.3125-36.121094-87.191407-36.121094-33.886718 0-63.21875 12.152344-87.191406 36.125s-36.128906 53.308594-36.128906 87.1875c0 33.886719 12.15625 63.222656 36.132812 87.195312 23.976563 23.96875 53.3125 36.125 87.1875 36.125zm0 0"/>
      <path d="m426.128906 393.703125c-.691406-9.976563-2.089844-20.859375-4.148437-32.351563-2.078125-11.578124-4.753907-22.523437-7.957031-32.527343-3.308594-10.339844-7.808594-20.550781-13.371094-30.335938-5.773438-10.15625-12.554688-19-20.164063-26.277343-7.957031-7.613282-17.699219-13.734376-28.964843-18.199219-11.226563-4.441407-23.667969-6.691407-36.976563-6.691407-5.226563 0-10.28125 2.144532-20.042969 8.5-6.007812 3.917969-13.035156 8.449219-20.878906 13.460938-6.707031 4.273438-15.792969 8.277344-27.015625 11.902344-10.949219 3.542968-22.066406 5.339844-33.039063 5.339844-10.972656 0-22.085937-1.796876-33.046874-5.339844-11.210938-3.621094-20.296876-7.625-26.996094-11.898438-7.769532-4.964844-14.800782-9.496094-20.898438-13.46875-9.75-6.355468-14.808594-8.5-20.035156-8.5-13.3125 0-25.75 2.253906-36.972656 6.699219-11.257813 4.457031-21.003906 10.578125-28.96875 18.199219-7.605469 7.28125-14.390625 16.121094-20.15625 26.273437-5.558594 9.785157-10.058594 19.992188-13.371094 30.339844-3.199219 10.003906-5.875 20.945313-7.953125 32.523437-2.058594 11.476563-3.457031 22.363282-4.148437 32.363282-.679688 9.796875-1.023438 19.964844-1.023438 30.234375 0 26.726562 8.496094 48.363281 25.25 64.320312 16.546875 15.746094 38.441406 23.734375 65.066406 23.734375h246.53125c26.625 0 48.511719-7.984375 65.0625-23.734375 16.757813-15.945312 25.253906-37.585937 25.253906-64.324219-.003906-10.316406-.351562-20.492187-1.035156-30.242187zm0 0"/>
    </g>
  </symbol>

  <symbol id="map-marker" viewBox="0 0 413.099 413.099">
    <g>
      <path d="M206.549,0L206.549,0c-82.6,0-149.3,66.7-149.3,149.3c0,28.8,9.2,56.3,22,78.899l97.3,168.399c6.1,11,18.4,16.5,30,16.5c11.601,0,23.3-5.5,30-16.5l97.3-168.299c12.9-22.601,22-49.601,22-78.901C355.849,66.8,289.149,0,206.549,0z M206.549,193.4c-30,0-54.5-24.5-54.5-54.5s24.5-54.5,54.5-54.5s54.5,24.5,54.5,54.5C261.049,169,236.549,193.4,206.549,193.4z"/>
    </g>
  </symbol>

  <symbol id="up-arrow" viewBox="0 0 240.835 240.835">
    <g>
      <path d="M129.007,57.819c-4.68-4.68-12.499-4.68-17.191,0L3.555,165.803c-4.74,4.74-4.74,12.427,0,17.155c4.74,4.74,12.439,4.74,17.179,0l99.683-99.406l99.671,99.418c4.752,4.74,12.439,4.74,17.191,0c4.74-4.74,4.74-12.427,0-17.155L129.007,57.819z"/>
    </g>
  </symbol>

  <symbol id="clock" viewBox="0 0 443.294 443.294">
    <g>
      <path d="m221.647 0c-122.214 0-221.647 99.433-221.647 221.647s99.433 221.647 221.647 221.647 221.647-99.433 221.647-221.647-99.433-221.647-221.647-221.647zm0 415.588c-106.941 0-193.941-87-193.941-193.941s87-193.941 193.941-193.941 193.941 87 193.941 193.941-87 193.941-193.941 193.941z"/>
      <path d="m235.5 83.118h-27.706v144.265l87.176 87.176 19.589-19.589-79.059-79.059z"/>
    </g>
  </symbol>

  <symbol id="at" viewBox="0 0 512 512">
    <g>
      <path d="M371.496,485.52C327.36,505.384,289.104,512,236.872,512C114.76,512,7.352,424.456,7.352,280.28C7.352,130.208,116.224,0,282.488,0c129.472,0,222.16,89.016,222.16,212.6c0,107.4-60.32,175.08-139.768,175.08c-34.576,0-59.584-17.656-63.264-56.648h-1.472c-22.8,37.52-55.904,56.648-94.896,56.648c-47.816,0-82.392-35.312-82.392-95.64c0-89.744,66.208-171.4,172.136-171.4c32.368,0,69.144,8.096,87.544,18.392l-22.064,136.096c-7.352,43.392-2.208,63.264,18.392,63.992c31.632,0.736,71.352-39.728,71.352-124.32c0-95.632-61.792-169.936-175.824-169.936c-112.544,0-211.128,88.28-211.128,228.784c0,122.848,78.712,192.736,188.328,192.736c37.52,0,77.248-8.088,106.664-23.544L371.496,485.52z M306.024,181.704c-5.888-1.472-13.248-2.944-22.808-2.944c-48.544,0-86.808,47.816-86.808,104.456c0,27.952,12.512,45.608,36.784,45.608c27.216,0,55.912-34.576,62.528-77.24L306.024,181.704z"/>
    </g>
  </symbol>

  <symbol id="mail" viewBox="0 0 512 512">
    <g>
      <path d="M507.49,101.721L352.211,256L507.49,410.279c2.807-5.867,4.51-12.353,4.51-19.279V121C512,114.073,510.297,107.588,507.49,101.721z"/>
      <path d="M467,76H45c-6.927,0-13.412,1.703-19.279,4.51l198.463,197.463c17.548,17.548,46.084,17.548,63.632,0L486.279,80.51C480.412,77.703,473.927,76,467,76z"/>
      <path d="M4.51,101.721C1.703,107.588,0,114.073,0,121v270c0,6.927,1.703,13.413,4.51,19.279L159.789,256L4.51,101.721z"/>
      <path d="M331,277.211l-21.973,21.973c-29.239,29.239-76.816,29.239-106.055,0L181,277.211L25.721,431.49C31.588,434.297,38.073,436,45,436h422c6.927,0,13.412-1.703,19.279-4.51L331,277.211z"/>
    </g>
  </symbol>
</svg>